<svg width="308" height="76" viewBox="0 0 308 76" fill="none" xmlns="http://www.w3.org/2000/svg">
<path d="M14.8 56V42.96L15.4 45.64L1.72 28H9.16L19.24 41.52L16.56 41.44L26.2 28H33.12L20.48 45.12L20.84 42.64V56H14.8ZM48.7606 56.4C46.174 56.4 43.8806 55.9333 41.8806 55C39.9073 54.0667 38.3473 52.7733 37.2006 51.12C36.054 49.44 35.4806 47.5333 35.4806 45.4C35.4806 43.24 36.054 41.3467 37.2006 39.72C38.3473 38.0667 39.9073 36.7733 41.8806 35.84C43.8806 34.88 46.174 34.4 48.7606 34.4C51.3473 34.4 53.6273 34.88 55.6006 35.84C57.6006 36.7733 59.1606 38.0667 60.2806 39.72C61.4273 41.3467 62.0006 43.24 62.0006 45.4C62.0006 47.5333 61.4273 49.44 60.2806 51.12C59.1606 52.7733 57.6006 54.0667 55.6006 55C53.6273 55.9333 51.3473 56.4 48.7606 56.4ZM48.8006 51.44C50.1606 51.44 51.414 51.1867 52.5606 50.68C53.7073 50.1733 54.614 49.4667 55.2806 48.56C55.9473 47.6267 56.2673 46.5733 56.2406 45.4C56.2673 44.2 55.9473 43.1467 55.2806 42.24C54.614 41.3333 53.7073 40.6267 52.5606 40.12C51.414 39.5867 50.1606 39.32 48.8006 39.32C47.3606 39.32 46.0673 39.5867 44.9206 40.12C43.774 40.6267 42.8673 41.3333 42.2006 42.24C41.5606 43.1467 41.2406 44.2 41.2406 45.4C41.2406 46.5733 41.5606 47.6267 42.2006 48.56C42.8673 49.4667 43.774 50.1733 44.9206 50.68C46.0673 51.1867 47.3606 51.44 48.8006 51.44ZM80.6184 56.4C78.8584 56.4 77.3118 56.0133 75.9784 55.24C74.6718 54.44 73.6584 53.2933 72.9384 51.8C72.2451 50.28 71.8984 48.4667 71.8984 46.36V34.84H77.5784V45.16C77.5784 46.4933 77.7518 47.6267 78.0984 48.56C78.4718 49.4667 79.0451 50.16 79.8184 50.64C80.6184 51.0933 81.6184 51.32 82.8184 51.32C83.6718 51.32 84.4584 51.2 85.1784 50.96C85.9251 50.6933 86.5651 50.32 87.0984 49.84C87.6584 49.3333 88.0984 48.7333 88.4184 48.04C88.7384 47.3467 88.8984 46.5733 88.8984 45.72V34.84H94.5784V56H89.1784L88.9784 51.64L90.0184 51.16C89.6984 52.04 89.0984 52.88 88.2184 53.68C87.3651 54.48 86.2851 55.1333 84.9784 55.64C83.6984 56.1467 82.2451 56.4 80.6184 56.4ZM107.222 56V34.84H112.662L112.862 42.32L111.382 41.76C111.782 40.4 112.436 39.16 113.342 38.04C114.249 36.92 115.302 36.04 116.502 35.4C117.729 34.7333 119.009 34.4 120.342 34.4C121.169 34.4 121.942 34.48 122.662 34.64C123.409 34.8 124.036 35.0267 124.542 35.32L123.022 41.4C122.542 41.1067 121.916 40.8667 121.142 40.68C120.369 40.4933 119.622 40.4 118.902 40.4C117.996 40.4 117.156 40.5467 116.382 40.84C115.636 41.1333 114.996 41.5467 114.462 42.08C113.956 42.5867 113.569 43.1733 113.302 43.84C113.036 44.48 112.902 45.1333 112.902 45.8V56H107.222Z" fill="#FE3E00"/>
<path d="M133.534 56V28H139.014L150.854 44.08H147.574L159.454 28H164.854V56H158.974V46.16C158.974 43.8667 159.028 41.76 159.134 39.84C159.241 37.8933 159.454 35.9333 159.774 33.96L160.414 35.92L150.494 48.8H147.854L137.934 35.92L138.614 33.96C138.908 35.88 139.108 37.8133 139.214 39.76C139.348 41.68 139.414 43.8133 139.414 46.16V56H133.534ZM187.624 56.4C184.957 56.4 182.611 55.9333 180.584 55C178.557 54.0667 176.971 52.7867 175.824 51.16C174.704 49.5067 174.144 47.64 174.144 45.56C174.144 43.8533 174.477 42.32 175.144 40.96C175.837 39.6 176.757 38.44 177.904 37.48C179.077 36.4933 180.437 35.7333 181.984 35.2C183.557 34.6667 185.211 34.4 186.944 34.4C188.651 34.4 190.237 34.6667 191.704 35.2C193.171 35.7067 194.451 36.4267 195.544 37.36C196.637 38.2933 197.477 39.4 198.064 40.68C198.677 41.96 198.957 43.3733 198.904 44.92L198.864 46.84H178.264L177.344 43.16H194.184L193.544 43.92V43.04C193.437 42.2667 193.077 41.5867 192.464 41C191.851 40.4133 191.064 39.96 190.104 39.64C189.171 39.32 188.144 39.16 187.024 39.16C185.584 39.16 184.291 39.3733 183.144 39.8C182.024 40.2 181.131 40.84 180.464 41.72C179.824 42.6 179.504 43.7333 179.504 45.12C179.504 46.3733 179.877 47.48 180.624 48.44C181.371 49.4 182.411 50.16 183.744 50.72C185.104 51.2533 186.691 51.52 188.504 51.52C190.157 51.52 191.531 51.3067 192.624 50.88C193.744 50.4533 194.691 50 195.464 49.52L197.984 53.28C197.104 53.92 196.104 54.48 194.984 54.96C193.864 55.4133 192.677 55.76 191.424 56C190.197 56.2667 188.931 56.4 187.624 56.4ZM209.41 56V34.84H214.85L214.97 40.2L213.49 40.52C213.89 39.48 214.53 38.4933 215.41 37.56C216.316 36.6267 217.396 35.8667 218.65 35.28C219.93 34.6933 221.356 34.4 222.93 34.4C224.85 34.4 226.476 34.7867 227.81 35.56C229.143 36.3067 230.156 37.3467 230.85 38.68C231.57 40.0133 231.93 41.56 231.93 43.32V56H226.25V44.28C226.25 43.24 226.023 42.3467 225.57 41.6C225.143 40.8533 224.543 40.28 223.77 39.88C222.996 39.48 222.076 39.28 221.01 39.28C220.13 39.28 219.316 39.44 218.57 39.76C217.85 40.0533 217.223 40.4667 216.69 41C216.183 41.5067 215.783 42.0667 215.49 42.68C215.196 43.2667 215.05 43.8533 215.05 44.44V56H212.25C211.396 56 210.73 56 210.25 56C209.796 56 209.516 56 209.41 56ZM252.884 56.4C251.124 56.4 249.577 56.0133 248.244 55.24C246.937 54.44 245.924 53.2933 245.204 51.8C244.511 50.28 244.164 48.4667 244.164 46.36V34.84H249.844V45.16C249.844 46.4933 250.017 47.6267 250.364 48.56C250.737 49.4667 251.311 50.16 252.084 50.64C252.884 51.0933 253.884 51.32 255.084 51.32C255.937 51.32 256.724 51.2 257.444 50.96C258.191 50.6933 258.831 50.32 259.364 49.84C259.924 49.3333 260.364 48.7333 260.684 48.04C261.004 47.3467 261.164 46.5733 261.164 45.72V34.84H266.844V56H261.444L261.244 51.64L262.284 51.16C261.964 52.04 261.364 52.88 260.484 53.68C259.631 54.48 258.551 55.1333 257.244 55.64C255.964 56.1467 254.511 56.4 252.884 56.4Z" fill="#0A0F24"/>
<path d="M265 29.3929V23.2894V13.1787M265 13.1787L291.811 3.45838C293.767 2.7492 295.833 4.19806 295.833 6.27874V13.1787M265 13.1787H295.833M265 62.7857V70C265 71.6569 266.343 73 268 73H302C303.657 73 305 71.6569 305 70V16.1787C305 14.5219 303.657 13.1787 302 13.1787H295.833" stroke="#FE3E00" stroke-width="5"/>
<path d="M278 36H288" stroke="#FE3E00" stroke-width="2" stroke-linecap="round"/>
<path d="M278 29H293.5" stroke="#FE3E00" stroke-width="2" stroke-linecap="round"/>
</svg>
