<svg width="30" height="30" viewBox="0 0 30 30" fill="none" xmlns="http://www.w3.org/2000/svg">
<path d="M20.5248 9.93752C23.5748 12.9875 23.5748 17.9375 20.5248 20.9875C17.4748 24.0375 12.5248 24.0375 9.47476 20.9875C6.42476 17.9375 6.42476 12.9875 9.47476 9.93752C11.1873 8.22502 13.5123 7.47503 15.7498 7.68753" stroke="#00B37E" stroke-width="1.5" stroke-linecap="round" stroke-linejoin="round"/>
<path d="M10.3125 27.0501C7.81249 26.0501 5.62499 24.2376 4.17499 21.7251C2.74999 19.2626 2.27499 16.5251 2.61249 13.9126" stroke="#00B37E" stroke-width="1.5" stroke-linecap="round" stroke-linejoin="round"/>
<path d="M7.3125 5.59995C9.4375 3.93745 12.1 2.94995 15 2.94995C17.8375 2.94995 20.45 3.91244 22.55 5.51244" stroke="#00B37E" stroke-width="1.5" stroke-linecap="round" stroke-linejoin="round"/>
<path d="M19.6875 27.0501C22.1875 26.0501 24.375 24.2376 25.825 21.7251C27.25 19.2626 27.725 16.5251 27.3875 13.9126" stroke="#00B37E" stroke-width="1.5" stroke-linecap="round" stroke-linejoin="round"/>
</svg>
